<svg width="600" height="400" viewBox="0 0 600 400" fill="none" xmlns="http://www.w3.org/2000/svg">
<path d="M93.599 144.162V251H73.4202V144.162H93.599ZM271.833 171.606V251H252.388V171.606H271.833ZM251.067 150.84C251.067 147.954 252.045 145.557 254.002 143.649C256.008 141.741 258.698 140.787 262.074 140.787C265.449 140.787 268.115 141.741 270.072 143.649C272.077 145.557 273.08 147.954 273.08 150.84C273.08 153.677 272.077 156.05 270.072 157.957C268.115 159.865 265.449 160.819 262.074 160.819C258.698 160.819 256.008 159.865 254.002 157.957C252.045 156.05 251.067 153.677 251.067 150.84ZM450.874 171.606V185.547H405.38V171.606H450.874ZM417.56 152.087H437.005V228.106C437.005 230.454 437.323 232.264 437.959 233.536C438.595 234.808 439.549 235.664 440.821 236.104C442.093 236.545 443.609 236.765 445.37 236.765C446.642 236.765 447.816 236.691 448.892 236.545C449.969 236.398 450.874 236.251 451.607 236.104L451.681 250.633C450.066 251.171 448.232 251.611 446.177 251.954C444.172 252.296 441.897 252.468 439.353 252.468C435 252.468 431.184 251.734 427.906 250.266C424.629 248.75 422.085 246.328 420.275 243.002C418.465 239.627 417.56 235.175 417.56 229.647V152.087Z" fill="#4285F4"/>
<path d="M132.929 188.556V251H113.558V171.606H131.755L132.929 188.556ZM129.847 208.441H124.124C124.173 202.669 124.956 197.434 126.472 192.738C127.989 188.042 130.117 184.006 132.856 180.631C135.644 177.256 138.946 174.663 142.762 172.853C146.578 171.043 150.833 170.138 155.53 170.138C159.345 170.138 162.794 170.676 165.876 171.752C168.958 172.829 171.599 174.541 173.801 176.889C176.051 179.237 177.763 182.319 178.937 186.134C180.16 189.901 180.771 194.548 180.771 200.076V251H161.253V199.929C161.253 196.309 160.715 193.448 159.639 191.344C158.611 189.241 157.095 187.749 155.089 186.868C153.133 185.988 150.711 185.547 147.825 185.547C144.841 185.547 142.224 186.159 139.974 187.382C137.772 188.556 135.913 190.195 134.397 192.298C132.929 194.402 131.804 196.823 131.022 199.562C130.239 202.302 129.847 205.261 129.847 208.441ZM394.813 171.606V251H375.368V171.606H394.813ZM374.047 150.84C374.047 147.954 375.026 145.557 376.983 143.649C378.988 141.741 381.679 140.787 385.054 140.787C388.429 140.787 391.096 141.741 393.052 143.649C395.058 145.557 396.061 147.954 396.061 150.84C396.061 153.677 395.058 156.05 393.052 157.957C391.096 159.865 388.429 160.819 385.054 160.819C381.679 160.819 378.988 159.865 376.983 157.957C375.026 156.05 374.047 153.677 374.047 150.84Z" fill="#EA4335"/>
<path d="M223.257 251H203.739V164.268C203.739 158.3 204.888 153.286 207.187 149.226C209.486 145.116 212.764 142.01 217.02 139.907C221.276 137.803 226.29 136.751 232.062 136.751C233.97 136.751 235.78 136.874 237.492 137.118C239.253 137.363 240.99 137.705 242.702 138.146L242.335 152.894C241.406 152.65 240.378 152.479 239.253 152.381C238.177 152.283 236.978 152.234 235.658 152.234C233.016 152.234 230.766 152.699 228.907 153.628C227.048 154.558 225.629 155.927 224.651 157.737C223.722 159.498 223.257 161.675 223.257 164.268V251ZM239.327 171.606V185.547H191.778V171.606H239.327ZM499.449 252.468C493.433 252.468 488.027 251.489 483.233 249.532C478.439 247.576 474.354 244.861 470.979 241.388C467.653 237.865 465.084 233.781 463.274 229.134C461.513 224.437 460.633 219.399 460.633 214.018V211.083C460.633 204.968 461.513 199.416 463.274 194.426C465.035 189.387 467.53 185.058 470.759 181.438C473.988 177.818 477.852 175.03 482.353 173.073C486.853 171.116 491.818 170.138 497.248 170.138C502.874 170.138 507.839 171.092 512.144 173C516.449 174.859 520.044 177.5 522.93 180.925C525.816 184.349 527.993 188.458 529.461 193.252C530.928 197.997 531.662 203.256 531.662 209.028V217.173H469.438V203.818H512.584V202.351C512.486 199.269 511.899 196.456 510.823 193.912C509.747 191.32 508.084 189.265 505.833 187.749C503.583 186.183 500.672 185.401 497.101 185.401C494.215 185.401 491.696 186.037 489.544 187.308C487.44 188.531 485.679 190.292 484.26 192.592C482.891 194.842 481.863 197.532 481.179 200.663C480.494 203.794 480.151 207.267 480.151 211.083V214.018C480.151 217.344 480.591 220.426 481.472 223.263C482.401 226.101 483.747 228.571 485.508 230.674C487.318 232.729 489.47 234.343 491.965 235.517C494.509 236.642 497.395 237.205 500.624 237.205C504.684 237.205 508.353 236.422 511.63 234.857C514.957 233.243 517.843 230.87 520.289 227.739L530.048 237.865C528.385 240.311 526.134 242.659 523.297 244.91C520.509 247.16 517.133 248.994 513.171 250.413C509.209 251.783 504.635 252.468 499.449 252.468Z" fill="#FBBC06"/>
<path d="M309.329 188.556V251H289.957V171.606H308.155L309.329 188.556ZM306.247 208.441H300.523C300.572 202.669 301.355 197.434 302.871 192.738C304.388 188.042 306.516 184.006 309.255 180.631C312.044 177.256 315.346 174.663 319.161 172.853C322.977 171.043 327.233 170.138 331.929 170.138C335.744 170.138 339.193 170.676 342.275 171.752C345.357 172.829 347.999 174.541 350.2 176.889C352.45 179.237 354.162 182.319 355.336 186.134C356.559 189.901 357.171 194.548 357.171 200.076V251H337.652V199.929C337.652 196.309 337.114 193.448 336.038 191.344C335.011 189.241 333.494 187.749 331.489 186.868C329.532 185.988 327.11 185.547 324.224 185.547C321.24 185.547 318.623 186.159 316.373 187.382C314.172 188.556 312.313 190.195 310.796 192.298C309.329 194.402 308.203 196.823 307.421 199.562C306.638 202.302 306.247 205.261 306.247 208.441Z" fill="#36A955"/>
</svg>
