<svg width="200" height="300" viewBox="0 0 200 300" fill="none" xmlns="http://www.w3.org/2000/svg">
<path d="M95.6532 70.0371C94.9169 41.546 107.038 35.0056 130.418 26.541C128.31 48.9418 127.537 61.6947 95.6532 70.0371Z" fill="#AAAAAA"/>
<path d="M84.0083 273.452C103.25 278.242 99.27 264.023 110.106 264.027C119.597 264.032 123.925 272.732 133.304 271.277C141.077 270.071 150.702 261.128 150.702 261.128C173.956 238.412 182.772 208.191 173.175 177.035C135.847 161 119.903 139.29 133.304 98.0174C134.832 99.2914 130.478 84.3608 113.006 76.2694C107.014 73.4946 98.507 84.9686 98.507 84.9686C98.507 84.9686 87.7408 75.6363 79.6587 76.2694C54.4478 78.2442 48.9651 121.586 47.0366 140.064C3.13226 188.086 22.1521 258.052 84.0083 273.452Z" fill="#AAAAAA"/>
</svg>
