<svg width="600" height="400" viewBox="0 0 600 400" fill="none" xmlns="http://www.w3.org/2000/svg">
<path d="M441.971 302.507L441.768 302.449H441.556H429.409H317.565H315.889C293.614 302.449 275.5 283.981 275.5 261.129V254.064V206.32C275.5 183.468 293.614 165 315.889 165H317.565H427.314C449.59 165 467.703 183.468 467.703 206.32V254.064V279.007V279.227L467.767 279.438L477.774 312.799L441.971 302.507Z" fill="black"/>
<path d="M441.971 302.507L441.768 302.449H441.556H429.409H317.565H315.889C293.614 302.449 275.5 283.981 275.5 261.129V254.064V206.32C275.5 183.468 293.614 165 315.889 165H317.565H427.314C449.59 165 467.703 183.468 467.703 206.32V254.064V279.007V279.227L467.767 279.438L477.774 312.799L441.971 302.507Z" fill="black"/>
<path d="M441.971 302.507L441.768 302.449H441.556H429.409H317.565H315.889C293.614 302.449 275.5 283.981 275.5 261.129V254.064V206.32C275.5 183.468 293.614 165 315.889 165H317.565H427.314C449.59 165 467.703 183.468 467.703 206.32V254.064V279.007V279.227L467.767 279.438L477.774 312.799L441.971 302.507Z" stroke="black" stroke-width="3"/>
<path d="M427.971 287.507L427.768 287.449H427.556H415.409H303.565H301.889C279.614 287.449 261.5 268.981 261.5 246.129V239.064V191.32C261.5 168.468 279.614 150 301.889 150H303.565H413.314C435.59 150 453.703 168.468 453.703 191.32V239.064V264.007V264.227L453.767 264.438L463.774 297.799L427.971 287.507Z" fill="black"/>
<path d="M427.971 287.507L427.768 287.449H427.556H415.409H303.565H301.889C279.614 287.449 261.5 268.981 261.5 246.129V239.064V191.32C261.5 168.468 279.614 150 301.889 150H303.565H413.314C435.59 150 453.703 168.468 453.703 191.32V239.064V264.007V264.227L453.767 264.438L463.774 297.799L427.971 287.507Z" fill="white"/>
<path d="M427.971 287.507L427.768 287.449H427.556H415.409H303.565H301.889C279.614 287.449 261.5 268.981 261.5 246.129V239.064V191.32C261.5 168.468 279.614 150 301.889 150H303.565H413.314C435.59 150 453.703 168.468 453.703 191.32V239.064V264.007V264.227L453.767 264.438L463.774 297.799L427.971 287.507Z" stroke="white" stroke-width="3"/>
<path d="M303.565 148.5H301.889M415.409 148.5H352.5M455.203 189.179V239.064V264.007L466 300L427.556 288.949H415.409H303.565H301.889C278.754 288.949 260 269.778 260 246.129M413.314 148.5C436.449 148.5 455.203 167.671 455.203 191.32" stroke="black" stroke-width="3"/>
<circle cx="266.567" cy="161.949" r="73.5" fill="url(#paint0_linear_1_2)" stroke="black" stroke-width="3"/>
<circle cx="266.567" cy="161.949" r="36" stroke="black" stroke-width="3"/>
<circle cx="265.817" cy="161.199" r="17.25" stroke="black" stroke-width="3"/>
<circle cx="265.817" cy="161.199" r="54.75" stroke="black" stroke-width="3"/>
<path d="M136.289 85L204.317 124.276M396.096 235L331.067 197.456" stroke="black" stroke-width="3"/>
<path d="M120.165 120.952L196.817 141.491M409.942 198.598L337.817 179.272" stroke="black" stroke-width="3"/>
<path d="M408.778 120.952L336.317 140.368M119 198.598L194.567 178.35" stroke="black" stroke-width="3"/>
<path d="M135.539 235L202.067 196.59M395.346 85L328.817 123.41" stroke="black" stroke-width="3"/>
<defs>
<linearGradient id="paint0_linear_1_2" x1="192" y1="113" x2="330.5" y2="213" gradientUnits="userSpaceOnUse">
<stop stop-color="#33BF49"/>
<stop offset="0.9998" stop-color="#9EFF00"/>
<stop offset="0.9999" stop-color="#04FF2C" stop-opacity="0.0625"/>
</linearGradient>
</defs>
</svg>
