<svg width="362" height="232" viewBox="0 0 362 232" fill="none" xmlns="http://www.w3.org/2000/svg">
<path d="M323.971 219.507L323.768 219.449H323.556H311.409H199.565H197.889C175.614 219.449 157.5 200.981 157.5 178.129V171.064V123.32C157.5 100.468 175.614 82 197.889 82H199.565H309.314C331.59 82 349.703 100.468 349.703 123.32V171.064V196.007V196.227L349.767 196.438L359.774 229.799L323.971 219.507Z" fill="white"/>
<path d="M323.971 219.507L323.768 219.449H323.556H311.409H199.565H197.889C175.614 219.449 157.5 200.981 157.5 178.129V171.064V123.32C157.5 100.468 175.614 82 197.889 82H199.565H309.314C331.59 82 349.703 100.468 349.703 123.32V171.064V196.007V196.227L349.767 196.438L359.774 229.799L323.971 219.507Z" fill="white"/>
<path d="M323.971 219.507L323.768 219.449H323.556H311.409H199.565H197.889C175.614 219.449 157.5 200.981 157.5 178.129V171.064V123.32C157.5 100.468 175.614 82 197.889 82H199.565H309.314C331.59 82 349.703 100.468 349.703 123.32V171.064V196.007V196.227L349.767 196.438L359.774 229.799L323.971 219.507Z" stroke="white" stroke-width="3"/>
<path d="M309.971 204.507L309.768 204.449H309.556H297.409H185.565H183.889C161.614 204.449 143.5 185.981 143.5 163.129V156.064V108.32C143.5 85.4683 161.614 67 183.889 67H185.565H295.314C317.59 67 335.703 85.4683 335.703 108.32V156.064V181.007V181.227L335.767 181.438L345.774 214.799L309.971 204.507Z" fill="white"/>
<path d="M309.971 204.507L309.768 204.449H309.556H297.409H185.565H183.889C161.614 204.449 143.5 185.981 143.5 163.129V156.064V108.32C143.5 85.4683 161.614 67 183.889 67H185.565H295.314C317.59 67 335.703 85.4683 335.703 108.32V156.064V181.007V181.227L335.767 181.438L345.774 214.799L309.971 204.507Z" fill="black"/>
<path d="M309.971 204.507L309.768 204.449H309.556H297.409H185.565H183.889C161.614 204.449 143.5 185.981 143.5 163.129V156.064V108.32C143.5 85.4683 161.614 67 183.889 67H185.565H295.314C317.59 67 335.703 85.4683 335.703 108.32V156.064V181.007V181.227L335.767 181.438L345.774 214.799L309.971 204.507Z" stroke="white" stroke-width="3"/>
<path d="M185.565 65.5H183.889M297.409 65.5H234.5M337.203 106.179V156.064V181.007L348 217L309.556 205.949H297.409H185.565H183.889C160.754 205.949 142 186.778 142 163.129M295.314 65.5C318.449 65.5 337.203 84.6711 337.203 108.32" stroke="white" stroke-width="3"/>
<circle cx="148.567" cy="78.9486" r="73.5" fill="url(#paint0_linear_107_12)" stroke="white" stroke-width="3"/>
<circle cx="148.567" cy="78.9486" r="36" stroke="white" stroke-width="3"/>
<circle cx="147.817" cy="78.1986" r="17.25" stroke="white" stroke-width="3"/>
<circle cx="147.817" cy="78.1986" r="54.75" stroke="white" stroke-width="3"/>
<path d="M18.2886 2L86.3174 41.2765M278.096 152L213.067 114.456" stroke="white" stroke-width="3"/>
<path d="M2.16464 37.9524L78.8174 58.4914M291.942 115.598L219.817 96.2723" stroke="white" stroke-width="3"/>
<path d="M290.778 37.9524L218.317 57.3681M0.999997 115.598L76.5674 95.3499" stroke="white" stroke-width="3"/>
<path d="M17.5386 152L84.0674 113.59M277.346 2L210.817 40.4104" stroke="white" stroke-width="3"/>
<defs>
<linearGradient id="paint0_linear_107_12" x1="74" y1="30" x2="212.5" y2="130" gradientUnits="userSpaceOnUse">
<stop stop-color="#33BF49"/>
<stop offset="0.9998" stop-color="#9EFF00"/>
<stop offset="0.9999" stop-color="#04FF2C" stop-opacity="0.0625"/>
</linearGradient>
</defs>
</svg>
