<svg id="visual" viewBox="0 0 960 540" width="960" height="540" xmlns="http://www.w3.org/2000/svg" xmlns:xlink="http://www.w3.org/1999/xlink" version="1.1"><path d="M0 82L14.5 92.8C29 103.7 58 125.3 87.2 127.2C116.3 129 145.7 111 174.8 104.7C204 98.3 233 103.7 262 106.3C291 109 320 109 349 110.8C378 112.7 407 116.3 436.2 109.2C465.3 102 494.7 84 523.8 78.5C553 73 582 80 611 89C640 98 669 109 698 108.2C727 107.3 756 94.7 785.2 86.5C814.3 78.3 843.7 74.7 872.8 82.8C902 91 931 111 945.5 121L960 131L960 0L945.5 0C931 0 902 0 872.8 0C843.7 0 814.3 0 785.2 0C756 0 727 0 698 0C669 0 640 0 611 0C582 0 553 0 523.8 0C494.7 0 465.3 0 436.2 0C407 0 378 0 349 0C320 0 291 0 262 0C233 0 204 0 174.8 0C145.7 0 116.3 0 87.2 0C58 0 29 0 14.5 0L0 0Z" fill="#2d4463"></path><path d="M0 212L14.5 229C29 246 58 280 87.2 287.2C116.3 294.3 145.7 274.7 174.8 260.3C204 246 233 237 262 248.7C291 260.3 320 292.7 349 311.5C378 330.3 407 335.7 436.2 332C465.3 328.3 494.7 315.7 523.8 293.2C553 270.7 582 238.3 611 229.3C640 220.3 669 234.7 698 257.2C727 279.7 756 310.3 785.2 314.8C814.3 319.3 843.7 297.7 872.8 288.7C902 279.7 931 283.3 945.5 285.2L960 287L960 129L945.5 119C931 109 902 89 872.8 80.8C843.7 72.7 814.3 76.3 785.2 84.5C756 92.7 727 105.3 698 106.2C669 107 640 96 611 87C582 78 553 71 523.8 76.5C494.7 82 465.3 100 436.2 107.2C407 114.3 378 110.7 349 108.8C320 107 291 107 262 104.3C233 101.7 204 96.3 174.8 102.7C145.7 109 116.3 127 87.2 125.2C58 123.3 29 101.7 14.5 90.8L0 80Z" fill="#20334c"></path><path d="M0 406L14.5 408.7C29 411.3 58 416.7 87.2 411.3C116.3 406 145.7 390 174.8 389.2C204 388.3 233 402.7 262 408.8C291 415 320 413 349 413C378 413 407 415 436.2 421.3C465.3 427.7 494.7 438.3 523.8 428.3C553 418.3 582 387.7 611 378.7C640 369.7 669 382.3 698 393.2C727 404 756 413 785.2 418.5C814.3 424 843.7 426 872.8 425.2C902 424.3 931 420.7 945.5 418.8L960 417L960 285L945.5 283.2C931 281.3 902 277.7 872.8 286.7C843.7 295.7 814.3 317.3 785.2 312.8C756 308.3 727 277.7 698 255.2C669 232.7 640 218.3 611 227.3C582 236.3 553 268.7 523.8 291.2C494.7 313.7 465.3 326.3 436.2 330C407 333.7 378 328.3 349 309.5C320 290.7 291 258.3 262 246.7C233 235 204 244 174.8 258.3C145.7 272.7 116.3 292.3 87.2 285.2C58 278 29 244 14.5 227L0 210Z" fill="#132236"></path><path d="M0 498L14.5 490.8C29 483.7 58 469.3 87.2 463C116.3 456.7 145.7 458.3 174.8 459.2C204 460 233 460 262 462.7C291 465.3 320 470.7 349 469.8C378 469 407 462 436.2 466.5C465.3 471 494.7 487 523.8 484.2C553 481.3 582 459.7 611 448.8C640 438 669 438 698 448.8C727 459.7 756 481.3 785.2 486.8C814.3 492.3 843.7 481.7 872.8 477.2C902 472.7 931 474.3 945.5 475.2L960 476L960 415L945.5 416.8C931 418.7 902 422.3 872.8 423.2C843.7 424 814.3 422 785.2 416.5C756 411 727 402 698 391.2C669 380.3 640 367.7 611 376.7C582 385.7 553 416.3 523.8 426.3C494.7 436.3 465.3 425.7 436.2 419.3C407 413 378 411 349 411C320 411 291 413 262 406.8C233 400.7 204 386.3 174.8 387.2C145.7 388 116.3 404 87.2 409.3C58 414.7 29 409.3 14.5 406.7L0 404Z" fill="#121e2f"></path><path d="M0 541L14.5 541C29 541 58 541 87.2 541C116.3 541 145.7 541 174.8 541C204 541 233 541 262 541C291 541 320 541 349 541C378 541 407 541 436.2 541C465.3 541 494.7 541 523.8 541C553 541 582 541 611 541C640 541 669 541 698 541C727 541 756 541 785.2 541C814.3 541 843.7 541 872.8 541C902 541 931 541 945.5 541L960 541L960 474L945.5 473.2C931 472.3 902 470.7 872.8 475.2C843.7 479.7 814.3 490.3 785.2 484.8C756 479.3 727 457.7 698 446.8C669 436 640 436 611 446.8C582 457.7 553 479.3 523.8 482.2C494.7 485 465.3 469 436.2 464.5C407 460 378 467 349 467.8C320 468.7 291 463.3 262 460.7C233 458 204 458 174.8 457.2C145.7 456.3 116.3 454.7 87.2 461C58 467.3 29 481.7 14.5 488.8L0 496Z" fill="#111b29"></path></svg>