<svg id="visual" viewBox="0 0 540 960" width="540" height="960" xmlns="http://www.w3.org/2000/svg" xmlns:xlink="http://www.w3.org/1999/xlink" version="1.1"><path d="M0 145L8.2 164.2C16.3 183.3 32.7 221.7 49 224.8C65.3 228 81.7 196 98 184.8C114.3 173.7 130.7 183.3 147 188.2C163.3 193 179.7 193 196 196.2C212.3 199.3 228.7 205.7 245.2 192.8C261.7 180 278.3 148 294.8 138.5C311.3 129 327.7 142 344 158C360.3 174 376.7 193 393 191.3C409.3 189.7 425.7 167.3 442 153C458.3 138.7 474.7 132.3 491 146.7C507.3 161 523.7 196 531.8 213.5L540 231L540 0L531.8 0C523.7 0 507.3 0 491 0C474.7 0 458.3 0 442 0C425.7 0 409.3 0 393 0C376.7 0 360.3 0 344 0C327.7 0 311.3 0 294.8 0C278.3 0 261.7 0 245.2 0C228.7 0 212.3 0 196 0C179.7 0 163.3 0 147 0C130.7 0 114.3 0 98 0C81.7 0 65.3 0 49 0C32.7 0 16.3 0 8.2 0L0 0Z" fill="#2d4463"></path><path d="M0 375L8.2 405.5C16.3 436 32.7 497 49 509.8C65.3 522.7 81.7 487.3 98 461.7C114.3 436 130.7 420 147 440.8C163.3 461.7 179.7 519.3 196 553C212.3 586.7 228.7 596.3 245.2 590C261.7 583.7 278.3 561.3 294.8 521.3C311.3 481.3 327.7 423.7 344 407.7C360.3 391.7 376.7 417.3 393 457.3C409.3 497.3 425.7 551.7 442 559.7C458.3 567.7 474.7 529.3 491 513.3C507.3 497.3 523.7 503.7 531.8 506.8L540 510L540 229L531.8 211.5C523.7 194 507.3 159 491 144.7C474.7 130.3 458.3 136.7 442 151C425.7 165.3 409.3 187.7 393 189.3C376.7 191 360.3 172 344 156C327.7 140 311.3 127 294.8 136.5C278.3 146 261.7 178 245.2 190.8C228.7 203.7 212.3 197.3 196 194.2C179.7 191 163.3 191 147 186.2C130.7 181.3 114.3 171.7 98 182.8C81.7 194 65.3 226 49 222.8C32.7 219.7 16.3 181.3 8.2 162.2L0 143Z" fill="#20334c"></path><path d="M0 721L8.2 725.8C16.3 730.7 32.7 740.3 49 730.7C65.3 721 81.7 692 98 690.3C114.3 688.7 130.7 714.3 147 725.7C163.3 737 179.7 734 196 734C212.3 734 228.7 737 245.2 748.2C261.7 759.3 278.3 778.7 294.8 761.2C311.3 743.7 327.7 689.3 344 673.3C360.3 657.3 376.7 679.7 393 698.8C409.3 718 425.7 734 442 743.5C458.3 753 474.7 756 491 754.3C507.3 752.7 523.7 746.3 531.8 743.2L540 740L540 508L531.8 504.8C523.7 501.7 507.3 495.3 491 511.3C474.7 527.3 458.3 565.7 442 557.7C425.7 549.7 409.3 495.3 393 455.3C376.7 415.3 360.3 389.7 344 405.7C327.7 421.7 311.3 479.3 294.8 519.3C278.3 559.3 261.7 581.7 245.2 588C228.7 594.3 212.3 584.7 196 551C179.7 517.3 163.3 459.7 147 438.8C130.7 418 114.3 434 98 459.7C81.7 485.3 65.3 520.7 49 507.8C32.7 495 16.3 434 8.2 403.5L0 373Z" fill="#132236"></path><path d="M0 884L8.2 871.2C16.3 858.3 32.7 832.7 49 821.5C65.3 810.3 81.7 813.7 98 815.3C114.3 817 130.7 817 147 821.8C163.3 826.7 179.7 836.3 196 834.7C212.3 833 228.7 820 245.2 828C261.7 836 278.3 865 294.8 860.3C311.3 855.7 327.7 817.3 344 798.2C360.3 779 376.7 779 393 798.2C409.3 817.3 425.7 855.7 442 865.2C458.3 874.7 474.7 855.3 491 847.3C507.3 839.3 523.7 842.7 531.8 844.3L540 846L540 738L531.8 741.2C523.7 744.3 507.3 750.7 491 752.3C474.7 754 458.3 751 442 741.5C425.7 732 409.3 716 393 696.8C376.7 677.7 360.3 655.3 344 671.3C327.7 687.3 311.3 741.7 294.8 759.2C278.3 776.7 261.7 757.3 245.2 746.2C228.7 735 212.3 732 196 732C179.7 732 163.3 735 147 723.7C130.7 712.3 114.3 686.7 98 688.3C81.7 690 65.3 719 49 728.7C32.7 738.3 16.3 728.7 8.2 723.8L0 719Z" fill="#121e2f"></path><path d="M0 961L8.2 961C16.3 961 32.7 961 49 961C65.3 961 81.7 961 98 961C114.3 961 130.7 961 147 961C163.3 961 179.7 961 196 961C212.3 961 228.7 961 245.2 961C261.7 961 278.3 961 294.8 961C311.3 961 327.7 961 344 961C360.3 961 376.7 961 393 961C409.3 961 425.7 961 442 961C458.3 961 474.7 961 491 961C507.3 961 523.7 961 531.8 961L540 961L540 844L531.8 842.3C523.7 840.7 507.3 837.3 491 845.3C474.7 853.3 458.3 872.7 442 863.2C425.7 853.7 409.3 815.3 393 796.2C376.7 777 360.3 777 344 796.2C327.7 815.3 311.3 853.7 294.8 858.3C278.3 863 261.7 834 245.2 826C228.7 818 212.3 831 196 832.7C179.7 834.3 163.3 824.7 147 819.8C130.7 815 114.3 815 98 813.3C81.7 811.7 65.3 808.3 49 819.5C32.7 830.7 16.3 856.3 8.2 869.2L0 882Z" fill="#111b29"></path></svg>