<svg id="visual" viewBox="0 0 960 540" width="960" height="540" xmlns="http://www.w3.org/2000/svg" xmlns:xlink="http://www.w3.org/1999/xlink" version="1.1"><g stroke-width="10" stroke-linejoin="bevel"><path d="M529.3 245L509.3 198L394.7 234Z" fill="#536383" stroke="#574848"></path><path d="M509.3 198L423.7 168L394.7 234Z" fill="#4b7398" stroke="#574848"></path><path d="M420.7 387L542.3 350L529.3 245Z" fill="#0096ba" stroke="#574848"></path><path d="M394.7 234L420.7 387L529.3 245Z" fill="#00b8b6" stroke="#574848"></path><path d="M525.3 61L413.7 90L423.7 168Z" fill="#0096ba" stroke="#574848"></path><path d="M423.7 168L281 168L394.7 234Z" fill="#53556d" stroke="#574848"></path><path d="M542.3 350L631 280L529.3 245Z" fill="#3784ab" stroke="#574848"></path><path d="M529.3 245L670 176L509.3 198Z" fill="#00c697" stroke="#574848"></path><path d="M509.3 198L525.3 61L423.7 168Z" fill="#4fd814" stroke="#574848"></path><path d="M288 288L321 347L394.7 234Z" fill="#0096ba" stroke="#574848"></path><path d="M394.7 234L321 347L420.7 387Z" fill="#53556d" stroke="#574848"></path><path d="M281 168L288 288L394.7 234Z" fill="#4b7398" stroke="#574848"></path><path d="M321 347L391.7 427L420.7 387Z" fill="#00d166" stroke="#574848"></path><path d="M420.7 387L520.3 458L542.3 350Z" fill="#00b8b6" stroke="#574848"></path><path d="M662 98L525.3 61L509.3 198Z" fill="#00d166" stroke="#574848"></path><path d="M413.7 90L281 168L423.7 168Z" fill="#4d4857" stroke="#574848"></path><path d="M626 438L624 362L542.3 350Z" fill="#53556d" stroke="#574848"></path><path d="M542.3 350L624 362L631 280Z" fill="#4b7398" stroke="#574848"></path><path d="M391.7 427L520.3 458L420.7 387Z" fill="#0096ba" stroke="#574848"></path><path d="M735.7 212L670 176L631 280Z" fill="#4fd814" stroke="#574848"></path><path d="M631 280L670 176L529.3 245Z" fill="#3784ab" stroke="#574848"></path><path d="M288 288L190.3 393L321 347Z" fill="#00a8c1" stroke="#574848"></path><path d="M321 347L318 489L391.7 427Z" fill="#536383" stroke="#574848"></path><path d="M281 168L226.3 256L288 288Z" fill="#53556d" stroke="#574848"></path><path d="M319 0L305 68L413.7 90Z" fill="#536383" stroke="#574848"></path><path d="M413.7 90L305 68L281 168Z" fill="#0096ba" stroke="#574848"></path><path d="M281 168L242.3 151L226.3 256Z" fill="#4fd814" stroke="#574848"></path><path d="M305 68L242.3 151L281 168Z" fill="#00a8c1" stroke="#574848"></path><path d="M525.3 61L425.7 0L413.7 90Z" fill="#00b8b6" stroke="#574848"></path><path d="M670 176L662 98L509.3 198Z" fill="#536383" stroke="#574848"></path><path d="M525.3 61L533.3 0L425.7 0Z" fill="#00d166" stroke="#574848"></path><path d="M520.3 458L626 438L542.3 350Z" fill="#4b7398" stroke="#574848"></path><path d="M759.7 271L735.7 212L631 280Z" fill="#53556d" stroke="#574848"></path><path d="M633 0L533.3 0L525.3 61Z" fill="#3784ab" stroke="#574848"></path><path d="M759.7 271L631 280L765.7 364Z" fill="#00b8b6" stroke="#574848"></path><path d="M670 176L751.7 103L662 98Z" fill="#536383" stroke="#574848"></path><path d="M234.3 472L318 489L321 347Z" fill="#00d166" stroke="#574848"></path><path d="M391.7 427L453.7 540L520.3 458Z" fill="#4b7398" stroke="#574848"></path><path d="M425.7 0L319 0L413.7 90Z" fill="#536383" stroke="#574848"></path><path d="M305 68L211.3 76L242.3 151Z" fill="#4fd814" stroke="#574848"></path><path d="M333 540L453.7 540L391.7 427Z" fill="#00d166" stroke="#574848"></path><path d="M520.3 458L570.3 540L626 438Z" fill="#0096ba" stroke="#574848"></path><path d="M765.7 364L631 280L624 362Z" fill="#4d4857" stroke="#574848"></path><path d="M774.7 0L633 0L662 98Z" fill="#0096ba" stroke="#574848"></path><path d="M662 98L633 0L525.3 61Z" fill="#4b7398" stroke="#574848"></path><path d="M319 0L211.3 76L305 68Z" fill="#00d166" stroke="#574848"></path><path d="M242.3 151L132.7 154L226.3 256Z" fill="#4fd814" stroke="#574848"></path><path d="M108.7 370L190.3 393L226.3 256Z" fill="#4fd814" stroke="#574848"></path><path d="M226.3 256L190.3 393L288 288Z" fill="#0096ba" stroke="#574848"></path><path d="M453.7 540L570.3 540L520.3 458Z" fill="#4b7398" stroke="#574848"></path><path d="M626 438L765.7 364L624 362Z" fill="#0096ba" stroke="#574848"></path><path d="M190.3 393L234.3 472L321 347Z" fill="#536383" stroke="#574848"></path><path d="M318 489L333 540L391.7 427Z" fill="#0096ba" stroke="#574848"></path><path d="M238.3 540L333 540L318 489Z" fill="#4fd814" stroke="#574848"></path><path d="M735.7 212L751.7 103L670 176Z" fill="#00a8c1" stroke="#574848"></path><path d="M816.3 181L751.7 103L735.7 212Z" fill="#00b8b6" stroke="#574848"></path><path d="M772.7 450L765.7 364L626 438Z" fill="#00a8c1" stroke="#574848"></path><path d="M759.7 271L816.3 181L735.7 212Z" fill="#00b8b6" stroke="#574848"></path><path d="M211.3 76L132.7 154L242.3 151Z" fill="#0096ba" stroke="#574848"></path><path d="M132.7 154L115.7 237L226.3 256Z" fill="#4fd814" stroke="#574848"></path><path d="M570.3 540L662 540L626 438Z" fill="#53556d" stroke="#574848"></path><path d="M857.3 261L816.3 181L759.7 271Z" fill="#4fd814" stroke="#574848"></path><path d="M140.7 457L238.3 540L234.3 472Z" fill="#3784ab" stroke="#574848"></path><path d="M234.3 472L238.3 540L318 489Z" fill="#00d166" stroke="#574848"></path><path d="M140.7 457L234.3 472L190.3 393Z" fill="#00d166" stroke="#574848"></path><path d="M662 540L772.7 450L626 438Z" fill="#4fd814" stroke="#574848"></path><path d="M765.7 364L857.3 261L759.7 271Z" fill="#4fd814" stroke="#574848"></path><path d="M0 204L0 266L115.7 237Z" fill="#00d166" stroke="#574848"></path><path d="M211.3 76L123.7 87L132.7 154Z" fill="#00d166" stroke="#574848"></path><path d="M178.3 0L123.7 87L211.3 76Z" fill="#3784ab" stroke="#574848"></path><path d="M115.7 237L108.7 370L226.3 256Z" fill="#00c697" stroke="#574848"></path><path d="M319 0L178.3 0L211.3 76Z" fill="#4b7398" stroke="#574848"></path><path d="M108.7 370L140.7 457L190.3 393Z" fill="#53556d" stroke="#574848"></path><path d="M853.3 378L857.3 261L765.7 364Z" fill="#4fd814" stroke="#574848"></path><path d="M825.3 0L774.7 0L751.7 103Z" fill="#00d166" stroke="#574848"></path><path d="M751.7 103L774.7 0L662 98Z" fill="#00a8c1" stroke="#574848"></path><path d="M861.3 127L751.7 103L816.3 181Z" fill="#4fd814" stroke="#574848"></path><path d="M772.7 450L853.3 378L765.7 364Z" fill="#00c697" stroke="#574848"></path><path d="M857.3 261L861.3 127L816.3 181Z" fill="#00b8b6" stroke="#574848"></path><path d="M662 540L778.7 540L772.7 450Z" fill="#0096ba" stroke="#574848"></path><path d="M772.7 450L881.3 448L853.3 378Z" fill="#00a8c1" stroke="#574848"></path><path d="M861.3 127L825.3 0L751.7 103Z" fill="#3784ab" stroke="#574848"></path><path d="M0 204L115.7 237L132.7 154Z" fill="#4fd814" stroke="#574848"></path><path d="M115.7 237L0 266L108.7 370Z" fill="#3784ab" stroke="#574848"></path><path d="M178.3 0L72.7 0L123.7 87Z" fill="#00d166" stroke="#574848"></path><path d="M0 204L132.7 154L0 63Z" fill="#4b7398" stroke="#574848"></path><path d="M108.7 370L0 452L140.7 457Z" fill="#00d166" stroke="#574848"></path><path d="M778.7 540L819.3 540L772.7 450Z" fill="#536383" stroke="#574848"></path><path d="M0 63L132.7 154L123.7 87Z" fill="#536383" stroke="#574848"></path><path d="M819.3 540L881.3 448L772.7 450Z" fill="#53556d" stroke="#574848"></path><path d="M960 344L960 272L857.3 261Z" fill="#3784ab" stroke="#574848"></path><path d="M857.3 261L960 152L861.3 127Z" fill="#4b7398" stroke="#574848"></path><path d="M0 266L0 398L108.7 370Z" fill="#4b7398" stroke="#574848"></path><path d="M140.7 457L71.7 540L238.3 540Z" fill="#4fd814" stroke="#574848"></path><path d="M0 452L71.7 540L140.7 457Z" fill="#00c697" stroke="#574848"></path><path d="M72.7 0L0 63L123.7 87Z" fill="#4d4857" stroke="#574848"></path><path d="M960 344L857.3 261L853.3 378Z" fill="#4fd814" stroke="#574848"></path><path d="M861.3 127L960 0L825.3 0Z" fill="#3784ab" stroke="#574848"></path><path d="M0 398L0 452L108.7 370Z" fill="#4b7398" stroke="#574848"></path><path d="M960 272L960 152L857.3 261Z" fill="#00a8c1" stroke="#574848"></path><path d="M881.3 448L960 344L853.3 378Z" fill="#4b7398" stroke="#574848"></path><path d="M960 484L960 344L881.3 448Z" fill="#4d4857" stroke="#574848"></path><path d="M960 152L960 112L861.3 127Z" fill="#00b8b6" stroke="#574848"></path><path d="M72.7 0L0 0L0 63Z" fill="#00a8c1" stroke="#574848"></path><path d="M0 452L0 540L71.7 540Z" fill="#4d4857" stroke="#574848"></path><path d="M960 540L960 484L881.3 448Z" fill="#4fd814" stroke="#574848"></path><path d="M960 112L960 0L861.3 127Z" fill="#00c697" stroke="#574848"></path><path d="M819.3 540L960 540L881.3 448Z" fill="#00d166" stroke="#574848"></path></g></svg>