<svg id="visual" viewBox="0 0 540 960" width="540" height="960" xmlns="http://www.w3.org/2000/svg" xmlns:xlink="http://www.w3.org/1999/xlink" version="1.1"><g stroke-width="10" stroke-linejoin="bevel"><path d="M229 492L234 449L163 482Z" fill="#0096ba" stroke="#574848"></path><path d="M234 449L154 418L163 482Z" fill="#536383" stroke="#574848"></path><path d="M234 449L173 396L154 418Z" fill="#53556d" stroke="#574848"></path><path d="M75 458L126 507L163 482Z" fill="#00b8b6" stroke="#574848"></path><path d="M202 571L254 531L229 492Z" fill="#00d166" stroke="#574848"></path><path d="M176 563L229 492L163 482Z" fill="#4fd814" stroke="#574848"></path><path d="M229 492L309 457L234 449Z" fill="#00a8c1" stroke="#574848"></path><path d="M126 507L152 553L163 482Z" fill="#53556d" stroke="#574848"></path><path d="M152 553L176 563L163 482Z" fill="#53556d" stroke="#574848"></path><path d="M176 563L202 571L229 492Z" fill="#536383" stroke="#574848"></path><path d="M254 531L309 457L229 492Z" fill="#4b7398" stroke="#574848"></path><path d="M234 449L283 383L173 396Z" fill="#4b7398" stroke="#574848"></path><path d="M206 328L141 372L173 396Z" fill="#4fd814" stroke="#574848"></path><path d="M173 396L141 372L154 418Z" fill="#3784ab" stroke="#574848"></path><path d="M154 418L75 458L163 482Z" fill="#536383" stroke="#574848"></path><path d="M208 649L226 581L202 571Z" fill="#53556d" stroke="#574848"></path><path d="M202 571L226 581L254 531Z" fill="#00d166" stroke="#574848"></path><path d="M254 531L343 519L309 457Z" fill="#00b8b6" stroke="#574848"></path><path d="M309 457L283 383L234 449Z" fill="#53556d" stroke="#574848"></path><path d="M141 372L113 377L154 418Z" fill="#4d4857" stroke="#574848"></path><path d="M85 386L75 458L154 418Z" fill="#536383" stroke="#574848"></path><path d="M126 507L117 598L152 553Z" fill="#4d4857" stroke="#574848"></path><path d="M283 383L206 328L173 396Z" fill="#00a8c1" stroke="#574848"></path><path d="M141 372L86 306L113 377Z" fill="#4fd814" stroke="#574848"></path><path d="M75 458L68 513L126 507Z" fill="#3784ab" stroke="#574848"></path><path d="M86 306L85 386L113 377Z" fill="#4b7398" stroke="#574848"></path><path d="M113 377L85 386L154 418Z" fill="#4b7398" stroke="#574848"></path><path d="M337 539L343 519L254 531Z" fill="#00d166" stroke="#574848"></path><path d="M309 457L350 407L283 383Z" fill="#4fd814" stroke="#574848"></path><path d="M152 553L117 598L176 563Z" fill="#00c697" stroke="#574848"></path><path d="M176 563L208 649L202 571Z" fill="#536383" stroke="#574848"></path><path d="M68 513L117 598L126 507Z" fill="#00a8c1" stroke="#574848"></path><path d="M347 569L337 539L327 596Z" fill="#00d166" stroke="#574848"></path><path d="M343 519L350 407L309 457Z" fill="#00a8c1" stroke="#574848"></path><path d="M283 383L311 343L206 328Z" fill="#53556d" stroke="#574848"></path><path d="M350 407L311 343L283 383Z" fill="#53556d" stroke="#574848"></path><path d="M75 458L35 517L68 513Z" fill="#4b7398" stroke="#574848"></path><path d="M68 513L0 575L117 598Z" fill="#4d4857" stroke="#574848"></path><path d="M0 502L35 517L75 458Z" fill="#536383" stroke="#574848"></path><path d="M219 289L159 298L206 328Z" fill="#00a8c1" stroke="#574848"></path><path d="M206 328L159 298L141 372Z" fill="#4fd814" stroke="#574848"></path><path d="M311 343L219 289L206 328Z" fill="#3784ab" stroke="#574848"></path><path d="M327 596L337 539L254 531Z" fill="#53556d" stroke="#574848"></path><path d="M337 539L347 569L343 519Z" fill="#4d4857" stroke="#574848"></path><path d="M448 388L392 347L350 407Z" fill="#0096ba" stroke="#574848"></path><path d="M327 596L254 531L226 581Z" fill="#536383" stroke="#574848"></path><path d="M308 667L327 596L226 581Z" fill="#00a8c1" stroke="#574848"></path><path d="M117 598L208 649L176 563Z" fill="#4b7398" stroke="#574848"></path><path d="M350 407L327 334L311 343Z" fill="#00c697" stroke="#574848"></path><path d="M311 343L316 273L219 289Z" fill="#4b7398" stroke="#574848"></path><path d="M208 649L223 657L226 581Z" fill="#3784ab" stroke="#574848"></path><path d="M112 235L86 306L159 298Z" fill="#00a8c1" stroke="#574848"></path><path d="M159 298L86 306L141 372Z" fill="#00b8b6" stroke="#574848"></path><path d="M0 416L0 502L75 458Z" fill="#536383" stroke="#574848"></path><path d="M0 416L75 458L85 386Z" fill="#4fd814" stroke="#574848"></path><path d="M27 627L109 662L117 598Z" fill="#4b7398" stroke="#574848"></path><path d="M0 394L0 416L85 386Z" fill="#4b7398" stroke="#574848"></path><path d="M211 232L190 261L219 289Z" fill="#00b8b6" stroke="#574848"></path><path d="M219 289L190 261L159 298Z" fill="#53556d" stroke="#574848"></path><path d="M86 306L0 394L85 386Z" fill="#3784ab" stroke="#574848"></path><path d="M0 575L68 513L35 517Z" fill="#0096ba" stroke="#574848"></path><path d="M117 598L109 662L208 649Z" fill="#536383" stroke="#574848"></path><path d="M208 649L151 714L223 657Z" fill="#4d4857" stroke="#574848"></path><path d="M308 667L343 629L327 596Z" fill="#53556d" stroke="#574848"></path><path d="M327 596L343 629L347 569Z" fill="#3784ab" stroke="#574848"></path><path d="M392 347L335 291L327 334Z" fill="#00d166" stroke="#574848"></path><path d="M327 334L316 273L311 343Z" fill="#53556d" stroke="#574848"></path><path d="M335 291L316 273L327 334Z" fill="#00c697" stroke="#574848"></path><path d="M0 502L0 575L35 517Z" fill="#0096ba" stroke="#574848"></path><path d="M350 407L392 347L327 334Z" fill="#536383" stroke="#574848"></path><path d="M442 434L350 407L446 478Z" fill="#00d166" stroke="#574848"></path><path d="M350 407L343 519L446 478Z" fill="#536383" stroke="#574848"></path><path d="M324 676L308 667L319 704Z" fill="#53556d" stroke="#574848"></path><path d="M223 657L308 667L226 581Z" fill="#00d166" stroke="#574848"></path><path d="M335 291L315 266L316 273Z" fill="#536383" stroke="#574848"></path><path d="M316 273L315 266L219 289Z" fill="#4fd814" stroke="#574848"></path><path d="M380 248L315 266L335 291Z" fill="#536383" stroke="#574848"></path><path d="M315 266L211 232L219 289Z" fill="#4b7398" stroke="#574848"></path><path d="M190 261L112 235L159 298Z" fill="#53556d" stroke="#574848"></path><path d="M0 575L27 627L117 598Z" fill="#0096ba" stroke="#574848"></path><path d="M319 704L308 667L223 733Z" fill="#53556d" stroke="#574848"></path><path d="M308 667L324 676L343 629Z" fill="#0096ba" stroke="#574848"></path><path d="M343 519L347 569L448 526Z" fill="#4d4857" stroke="#574848"></path><path d="M446 478L343 519L448 526Z" fill="#0096ba" stroke="#574848"></path><path d="M448 526L347 569L436 617Z" fill="#00d166" stroke="#574848"></path><path d="M193 218L112 235L190 261Z" fill="#00a8c1" stroke="#574848"></path><path d="M86 306L0 286L0 394Z" fill="#53556d" stroke="#574848"></path><path d="M214 177L193 218L211 232Z" fill="#00a8c1" stroke="#574848"></path><path d="M211 232L193 218L190 261Z" fill="#00c697" stroke="#574848"></path><path d="M77 236L38 276L86 306Z" fill="#00d166" stroke="#574848"></path><path d="M103 745L151 714L109 662Z" fill="#00b8b6" stroke="#574848"></path><path d="M109 662L151 714L208 649Z" fill="#4d4857" stroke="#574848"></path><path d="M436 617L347 569L343 629Z" fill="#0096ba" stroke="#574848"></path><path d="M0 636L24 659L27 627Z" fill="#00a8c1" stroke="#574848"></path><path d="M27 627L24 659L109 662Z" fill="#4b7398" stroke="#574848"></path><path d="M79 207L77 236L112 235Z" fill="#53556d" stroke="#574848"></path><path d="M112 235L77 236L86 306Z" fill="#53556d" stroke="#574848"></path><path d="M540 431L448 388L442 434Z" fill="#00b8b6" stroke="#574848"></path><path d="M442 434L448 388L350 407Z" fill="#00d166" stroke="#574848"></path><path d="M392 347L380 248L335 291Z" fill="#00a8c1" stroke="#574848"></path><path d="M489 478L442 434L446 478Z" fill="#53556d" stroke="#574848"></path><path d="M0 575L0 636L27 627Z" fill="#53556d" stroke="#574848"></path><path d="M223 733L308 667L223 657Z" fill="#53556d" stroke="#574848"></path><path d="M443 634L436 617L343 629Z" fill="#53556d" stroke="#574848"></path><path d="M151 714L223 733L223 657Z" fill="#00b8b6" stroke="#574848"></path><path d="M0 215L0 286L38 276Z" fill="#00b8b6" stroke="#574848"></path><path d="M38 276L0 286L86 306Z" fill="#3784ab" stroke="#574848"></path><path d="M0 636L0 654L24 659Z" fill="#00d166" stroke="#574848"></path><path d="M24 659L45 696L109 662Z" fill="#0096ba" stroke="#574848"></path><path d="M0 654L45 696L24 659Z" fill="#4fd814" stroke="#574848"></path><path d="M151 714L210 744L223 733Z" fill="#00b8b6" stroke="#574848"></path><path d="M189 767L210 744L151 714Z" fill="#3784ab" stroke="#574848"></path><path d="M223 733L320 744L319 704Z" fill="#4d4857" stroke="#574848"></path><path d="M443 634L343 629L393 705Z" fill="#4d4857" stroke="#574848"></path><path d="M448 267L380 248L392 347Z" fill="#4b7398" stroke="#574848"></path><path d="M276 169L214 177L211 232Z" fill="#0096ba" stroke="#574848"></path><path d="M97 183L79 207L112 235Z" fill="#00d166" stroke="#574848"></path><path d="M77 236L0 215L38 276Z" fill="#4b7398" stroke="#574848"></path><path d="M276 169L211 232L315 266Z" fill="#4fd814" stroke="#574848"></path><path d="M193 218L97 183L112 235Z" fill="#00b8b6" stroke="#574848"></path><path d="M504 505L489 478L448 526Z" fill="#536383" stroke="#574848"></path><path d="M448 526L489 478L446 478Z" fill="#0096ba" stroke="#574848"></path><path d="M380 248L330 206L315 266Z" fill="#0096ba" stroke="#574848"></path><path d="M45 696L103 745L109 662Z" fill="#53556d" stroke="#574848"></path><path d="M393 705L343 629L324 676Z" fill="#536383" stroke="#574848"></path><path d="M540 563L504 505L448 526Z" fill="#3784ab" stroke="#574848"></path><path d="M103 745L189 767L151 714Z" fill="#4d4857" stroke="#574848"></path><path d="M268 781L320 744L223 733Z" fill="#4fd814" stroke="#574848"></path><path d="M214 177L97 183L193 218Z" fill="#4d4857" stroke="#574848"></path><path d="M79 207L0 215L77 236Z" fill="#4d4857" stroke="#574848"></path><path d="M268 781L223 733L210 744Z" fill="#00a8c1" stroke="#574848"></path><path d="M319 704L393 705L324 676Z" fill="#00c697" stroke="#574848"></path><path d="M329 747L393 705L319 704Z" fill="#00a8c1" stroke="#574848"></path><path d="M540 511L504 505L540 563Z" fill="#4b7398" stroke="#574848"></path><path d="M497 347L392 347L448 388Z" fill="#536383" stroke="#574848"></path><path d="M330 206L276 169L315 266Z" fill="#3784ab" stroke="#574848"></path><path d="M214 177L124 110L97 183Z" fill="#3784ab" stroke="#574848"></path><path d="M393 705L449 647L443 634Z" fill="#00b8b6" stroke="#574848"></path><path d="M540 563L448 526L436 617Z" fill="#00d166" stroke="#574848"></path><path d="M284 803L329 747L320 744Z" fill="#00b8b6" stroke="#574848"></path><path d="M320 744L329 747L319 704Z" fill="#4d4857" stroke="#574848"></path><path d="M384 213L339 189L330 206Z" fill="#00b8b6" stroke="#574848"></path><path d="M330 206L339 189L276 169Z" fill="#00c697" stroke="#574848"></path><path d="M215 130L235 155L305 140Z" fill="#536383" stroke="#574848"></path><path d="M276 169L235 155L214 177Z" fill="#00b8b6" stroke="#574848"></path><path d="M380 248L384 213L330 206Z" fill="#3784ab" stroke="#574848"></path><path d="M443 210L384 213L380 248Z" fill="#53556d" stroke="#574848"></path><path d="M448 267L392 347L497 347Z" fill="#00b8b6" stroke="#574848"></path><path d="M497 347L448 388L540 376Z" fill="#00a8c1" stroke="#574848"></path><path d="M0 171L0 215L79 207Z" fill="#00c697" stroke="#574848"></path><path d="M540 431L442 434L489 478Z" fill="#4b7398" stroke="#574848"></path><path d="M189 767L268 781L210 744Z" fill="#4d4857" stroke="#574848"></path><path d="M305 140L235 155L276 169Z" fill="#4b7398" stroke="#574848"></path><path d="M235 155L215 130L214 177Z" fill="#0096ba" stroke="#574848"></path><path d="M97 183L0 171L79 207Z" fill="#4b7398" stroke="#574848"></path><path d="M540 511L489 478L504 505Z" fill="#00b8b6" stroke="#574848"></path><path d="M540 511L540 431L489 478Z" fill="#53556d" stroke="#574848"></path><path d="M357 104L305 140L339 189Z" fill="#4b7398" stroke="#574848"></path><path d="M339 189L305 140L276 169Z" fill="#0096ba" stroke="#574848"></path><path d="M357 104L339 189L384 213Z" fill="#00d166" stroke="#574848"></path><path d="M540 563L436 617L540 598Z" fill="#53556d" stroke="#574848"></path><path d="M45 696L0 750L103 745Z" fill="#00c697" stroke="#574848"></path><path d="M103 745L99 815L189 767Z" fill="#00d166" stroke="#574848"></path><path d="M259 871L284 803L268 781Z" fill="#3784ab" stroke="#574848"></path><path d="M0 654L0 750L45 696Z" fill="#53556d" stroke="#574848"></path><path d="M259 871L268 781L189 767Z" fill="#00c697" stroke="#574848"></path><path d="M268 781L284 803L320 744Z" fill="#536383" stroke="#574848"></path><path d="M431 756L475 699L393 705Z" fill="#4b7398" stroke="#574848"></path><path d="M540 431L540 376L448 388Z" fill="#4b7398" stroke="#574848"></path><path d="M540 218L443 210L448 267Z" fill="#536383" stroke="#574848"></path><path d="M518 283L448 267L497 347Z" fill="#536383" stroke="#574848"></path><path d="M448 267L443 210L380 248Z" fill="#00b8b6" stroke="#574848"></path><path d="M513 637L436 617L443 634Z" fill="#00b8b6" stroke="#574848"></path><path d="M513 637L443 634L449 647Z" fill="#0096ba" stroke="#574848"></path><path d="M0 750L0 762L103 745Z" fill="#00d166" stroke="#574848"></path><path d="M35 113L0 171L97 183Z" fill="#53556d" stroke="#574848"></path><path d="M475 699L449 647L393 705Z" fill="#4d4857" stroke="#574848"></path><path d="M475 699L513 637L449 647Z" fill="#4d4857" stroke="#574848"></path><path d="M431 756L393 705L329 747Z" fill="#4fd814" stroke="#574848"></path><path d="M32 814L99 815L103 745Z" fill="#4fd814" stroke="#574848"></path><path d="M215 130L124 110L214 177Z" fill="#00b8b6" stroke="#574848"></path><path d="M197 74L124 110L215 130Z" fill="#53556d" stroke="#574848"></path><path d="M513 637L540 598L436 617Z" fill="#00c697" stroke="#574848"></path><path d="M540 648L540 598L513 637Z" fill="#4fd814" stroke="#574848"></path><path d="M540 376L518 283L497 347Z" fill="#53556d" stroke="#574848"></path><path d="M437 763L431 756L382 869Z" fill="#53556d" stroke="#574848"></path><path d="M458 804L437 763L382 869Z" fill="#00d166" stroke="#574848"></path><path d="M431 756L437 763L475 699Z" fill="#00a8c1" stroke="#574848"></path><path d="M475 699L540 648L513 637Z" fill="#3784ab" stroke="#574848"></path><path d="M0 762L32 814L103 745Z" fill="#00c697" stroke="#574848"></path><path d="M540 757L540 648L475 699Z" fill="#00d166" stroke="#574848"></path><path d="M124 110L35 113L97 183Z" fill="#3784ab" stroke="#574848"></path><path d="M278 40L215 130L305 140Z" fill="#00a8c1" stroke="#574848"></path><path d="M278 40L197 74L215 130Z" fill="#00a8c1" stroke="#574848"></path><path d="M124 110L90 68L35 113Z" fill="#4fd814" stroke="#574848"></path><path d="M540 203L451 165L443 210Z" fill="#4fd814" stroke="#574848"></path><path d="M443 210L451 165L384 213Z" fill="#00b8b6" stroke="#574848"></path><path d="M56 902L122 853L99 815Z" fill="#53556d" stroke="#574848"></path><path d="M99 815L122 853L189 767Z" fill="#4fd814" stroke="#574848"></path><path d="M355 863L431 756L329 747Z" fill="#00b8b6" stroke="#574848"></path><path d="M451 165L357 104L384 213Z" fill="#4d4857" stroke="#574848"></path><path d="M518 283L540 218L448 267Z" fill="#4b7398" stroke="#574848"></path><path d="M540 376L540 260L518 283Z" fill="#3784ab" stroke="#574848"></path><path d="M122 853L154 863L189 767Z" fill="#4fd814" stroke="#574848"></path><path d="M197 74L102 72L124 110Z" fill="#536383" stroke="#574848"></path><path d="M154 863L259 871L189 767Z" fill="#00b8b6" stroke="#574848"></path><path d="M122 0L90 68L102 72Z" fill="#00a8c1" stroke="#574848"></path><path d="M102 72L90 68L124 110Z" fill="#00b8b6" stroke="#574848"></path><path d="M540 260L540 218L518 283Z" fill="#0096ba" stroke="#574848"></path><path d="M451 165L454 128L357 104Z" fill="#3784ab" stroke="#574848"></path><path d="M488 97L454 128L451 165Z" fill="#3784ab" stroke="#574848"></path><path d="M355 863L329 747L284 803Z" fill="#0096ba" stroke="#574848"></path><path d="M437 763L519 757L475 699Z" fill="#53556d" stroke="#574848"></path><path d="M0 54L0 91L35 113Z" fill="#4fd814" stroke="#574848"></path><path d="M35 113L0 91L0 171Z" fill="#00d166" stroke="#574848"></path><path d="M338 879L355 863L284 803Z" fill="#00b8b6" stroke="#574848"></path><path d="M540 218L540 203L443 210Z" fill="#00b8b6" stroke="#574848"></path><path d="M458 804L519 757L437 763Z" fill="#536383" stroke="#574848"></path><path d="M332 0L278 40L357 104Z" fill="#536383" stroke="#574848"></path><path d="M357 104L278 40L305 140Z" fill="#3784ab" stroke="#574848"></path><path d="M197 74L146 0L102 72Z" fill="#53556d" stroke="#574848"></path><path d="M259 871L338 879L284 803Z" fill="#3784ab" stroke="#574848"></path><path d="M355 863L382 869L431 756Z" fill="#00c697" stroke="#574848"></path><path d="M260 922L338 879L259 871Z" fill="#536383" stroke="#574848"></path><path d="M454 128L396 77L357 104Z" fill="#0096ba" stroke="#574848"></path><path d="M438 53L396 77L454 128Z" fill="#0096ba" stroke="#574848"></path><path d="M338 879L382 869L355 863Z" fill="#00b8b6" stroke="#574848"></path><path d="M540 758L540 757L519 757Z" fill="#53556d" stroke="#574848"></path><path d="M540 758L519 757L540 858Z" fill="#4b7398" stroke="#574848"></path><path d="M519 757L540 757L475 699Z" fill="#3784ab" stroke="#574848"></path><path d="M540 858L519 757L458 804Z" fill="#53556d" stroke="#574848"></path><path d="M332 0L275 22L278 40Z" fill="#53556d" stroke="#574848"></path><path d="M278 40L275 22L197 74Z" fill="#3784ab" stroke="#574848"></path><path d="M32 814L56 902L99 815Z" fill="#00c697" stroke="#574848"></path><path d="M122 853L137 934L154 863Z" fill="#4fd814" stroke="#574848"></path><path d="M188 928L260 922L259 871Z" fill="#00c697" stroke="#574848"></path><path d="M0 762L0 879L32 814Z" fill="#00a8c1" stroke="#574848"></path><path d="M0 879L56 902L32 814Z" fill="#4b7398" stroke="#574848"></path><path d="M89 0L0 54L90 68Z" fill="#00c697" stroke="#574848"></path><path d="M90 68L0 54L35 113Z" fill="#53556d" stroke="#574848"></path><path d="M188 928L259 871L154 863Z" fill="#53556d" stroke="#574848"></path><path d="M338 879L328 934L382 869Z" fill="#53556d" stroke="#574848"></path><path d="M137 934L188 928L154 863Z" fill="#3784ab" stroke="#574848"></path><path d="M0 879L0 884L56 902Z" fill="#536383" stroke="#574848"></path><path d="M540 203L488 97L451 165Z" fill="#00d166" stroke="#574848"></path><path d="M276 0L270 0L275 22Z" fill="#53556d" stroke="#574848"></path><path d="M270 0L146 0L197 74Z" fill="#4d4857" stroke="#574848"></path><path d="M56 902L137 934L122 853Z" fill="#536383" stroke="#574848"></path><path d="M339 960L328 934L260 922Z" fill="#4b7398" stroke="#574848"></path><path d="M182 960L137 934L91 960Z" fill="#4d4857" stroke="#574848"></path><path d="M275 22L270 0L197 74Z" fill="#4d4857" stroke="#574848"></path><path d="M276 0L275 22L332 0Z" fill="#4d4857" stroke="#574848"></path><path d="M332 0L357 104L396 77Z" fill="#536383" stroke="#574848"></path><path d="M146 0L122 0L102 72Z" fill="#3784ab" stroke="#574848"></path><path d="M464 875L452 868L410 960Z" fill="#4b7398" stroke="#574848"></path><path d="M382 869L452 868L458 804Z" fill="#536383" stroke="#574848"></path><path d="M488 97L475 77L454 128Z" fill="#53556d" stroke="#574848"></path><path d="M475 77L438 53L454 128Z" fill="#00d166" stroke="#574848"></path><path d="M122 0L89 0L90 68Z" fill="#3784ab" stroke="#574848"></path><path d="M260 922L328 934L338 879Z" fill="#00a8c1" stroke="#574848"></path><path d="M235 960L260 922L188 928Z" fill="#4fd814" stroke="#574848"></path><path d="M438 53L332 0L396 77Z" fill="#3784ab" stroke="#574848"></path><path d="M410 960L452 868L382 869Z" fill="#00b8b6" stroke="#574848"></path><path d="M452 868L464 875L458 804Z" fill="#4fd814" stroke="#574848"></path><path d="M91 960L137 934L56 902Z" fill="#3784ab" stroke="#574848"></path><path d="M137 934L182 960L188 928Z" fill="#536383" stroke="#574848"></path><path d="M182 960L235 960L188 928Z" fill="#00a8c1" stroke="#574848"></path><path d="M85 960L91 960L56 902Z" fill="#00b8b6" stroke="#574848"></path><path d="M0 960L85 960L56 902Z" fill="#00c697" stroke="#574848"></path><path d="M89 0L0 0L0 54Z" fill="#0096ba" stroke="#574848"></path><path d="M540 203L540 89L488 97Z" fill="#4d4857" stroke="#574848"></path><path d="M488 97L540 88L475 77Z" fill="#4b7398" stroke="#574848"></path><path d="M451 0L448 0L438 53Z" fill="#00b8b6" stroke="#574848"></path><path d="M438 53L448 0L332 0Z" fill="#00d166" stroke="#574848"></path><path d="M540 89L540 88L488 97Z" fill="#00b8b6" stroke="#574848"></path><path d="M235 960L339 960L260 922Z" fill="#00b8b6" stroke="#574848"></path><path d="M328 934L360 960L382 869Z" fill="#4b7398" stroke="#574848"></path><path d="M339 960L360 960L328 934Z" fill="#00a8c1" stroke="#574848"></path><path d="M464 875L540 858L458 804Z" fill="#00d166" stroke="#574848"></path><path d="M540 898L540 858L464 875Z" fill="#4fd814" stroke="#574848"></path><path d="M451 0L438 53L475 77Z" fill="#4fd814" stroke="#574848"></path><path d="M540 0L451 0L475 77Z" fill="#536383" stroke="#574848"></path><path d="M0 884L0 960L56 902Z" fill="#00d166" stroke="#574848"></path><path d="M360 960L410 960L382 869Z" fill="#536383" stroke="#574848"></path><path d="M462 960L540 898L464 875Z" fill="#4fd814" stroke="#574848"></path><path d="M410 960L462 960L464 875Z" fill="#536383" stroke="#574848"></path><path d="M540 88L540 0L475 77Z" fill="#00d166" stroke="#574848"></path><path d="M462 960L540 960L540 898Z" fill="#4b7398" stroke="#574848"></path></g></svg>