<svg id="visual" viewBox="0 0 540 960" width="540" height="960" xmlns="http://www.w3.org/2000/svg" xmlns:xlink="http://www.w3.org/1999/xlink" version="1.1"><rect x="0" y="0" width="540" height="960" fill="#001220"></rect><defs><linearGradient id="grad1_0" x1="0%" y1="0%" x2="100%" y2="100%"><stop offset="30%" stop-color="#5ffa3c" stop-opacity="1"></stop><stop offset="70%" stop-color="#5ffa3c" stop-opacity="1"></stop></linearGradient></defs><defs><linearGradient id="grad1_1" x1="0%" y1="0%" x2="100%" y2="100%"><stop offset="30%" stop-color="#5ffa3c" stop-opacity="1"></stop><stop offset="70%" stop-color="#00c17f" stop-opacity="1"></stop></linearGradient></defs><defs><linearGradient id="grad1_2" x1="0%" y1="0%" x2="100%" y2="100%"><stop offset="30%" stop-color="#00838b" stop-opacity="1"></stop><stop offset="70%" stop-color="#00c17f" stop-opacity="1"></stop></linearGradient></defs><defs><linearGradient id="grad1_3" x1="0%" y1="0%" x2="100%" y2="100%"><stop offset="30%" stop-color="#00838b" stop-opacity="1"></stop><stop offset="70%" stop-color="#004765" stop-opacity="1"></stop></linearGradient></defs><defs><linearGradient id="grad1_4" x1="0%" y1="0%" x2="100%" y2="100%"><stop offset="30%" stop-color="#001220" stop-opacity="1"></stop><stop offset="70%" stop-color="#004765" stop-opacity="1"></stop></linearGradient></defs><defs><linearGradient id="grad2_0" x1="0%" y1="0%" x2="100%" y2="100%"><stop offset="30%" stop-color="#5ffa3c" stop-opacity="1"></stop><stop offset="70%" stop-color="#5ffa3c" stop-opacity="1"></stop></linearGradient></defs><defs><linearGradient id="grad2_1" x1="0%" y1="0%" x2="100%" y2="100%"><stop offset="30%" stop-color="#00c17f" stop-opacity="1"></stop><stop offset="70%" stop-color="#5ffa3c" stop-opacity="1"></stop></linearGradient></defs><defs><linearGradient id="grad2_2" x1="0%" y1="0%" x2="100%" y2="100%"><stop offset="30%" stop-color="#00c17f" stop-opacity="1"></stop><stop offset="70%" stop-color="#00838b" stop-opacity="1"></stop></linearGradient></defs><defs><linearGradient id="grad2_3" x1="0%" y1="0%" x2="100%" y2="100%"><stop offset="30%" stop-color="#004765" stop-opacity="1"></stop><stop offset="70%" stop-color="#00838b" stop-opacity="1"></stop></linearGradient></defs><defs><linearGradient id="grad2_4" x1="0%" y1="0%" x2="100%" y2="100%"><stop offset="30%" stop-color="#004765" stop-opacity="1"></stop><stop offset="70%" stop-color="#001220" stop-opacity="1"></stop></linearGradient></defs><g transform="translate(540, 0)"><path d="M0 486C-70 485.2 -139.9 484.4 -186 449C-232.1 413.6 -254.3 343.6 -297 297C-339.7 250.3 -403 227 -437.9 181.4C-472.8 135.8 -479.4 67.9 -486 0L0 0Z" fill="#002b44"></path><path d="M0 388.8C-56 388.2 -111.9 387.5 -148.8 359.2C-185.6 330.9 -203.4 274.9 -237.6 237.6C-271.8 200.3 -322.4 181.6 -350.3 145.1C-378.3 108.6 -383.5 54.3 -388.8 0L0 0Z" fill="#00657e"></path><path d="M0 291.6C-42 291.1 -83.9 290.6 -111.6 269.4C-139.2 248.2 -152.6 206.2 -178.2 178.2C-203.8 150.2 -241.8 136.2 -262.8 108.8C-283.7 81.5 -287.7 40.7 -291.6 0L0 0Z" fill="#00a28c"></path><path d="M0 194.4C-28 194.1 -56 193.8 -74.4 179.6C-92.8 165.4 -101.7 137.5 -118.8 118.8C-135.9 100.1 -161.2 90.8 -175.2 72.6C-189.1 54.3 -191.8 27.2 -194.4 0L0 0Z" fill="#00df66"></path><path d="M0 97.2C-14 97 -28 96.9 -37.2 89.8C-46.4 82.7 -50.9 68.7 -59.4 59.4C-67.9 50.1 -80.6 45.4 -87.6 36.3C-94.6 27.2 -95.9 13.6 -97.2 0L0 0Z" fill="#5ffa3c"></path></g><g transform="translate(0, 960)"><path d="M0 -486C51 -445.5 102.1 -404.9 158.8 -383.4C215.5 -361.9 277.9 -359.3 330.2 -330.2C382.5 -301.1 424.7 -245.4 449 -186C473.3 -126.5 479.6 -63.3 486 0L0 0Z" fill="#002b44"></path><path d="M0 -388.8C40.8 -356.4 81.7 -324 127.1 -306.7C172.4 -289.5 222.3 -287.5 264.2 -264.2C306 -240.9 339.8 -196.4 359.2 -148.8C378.6 -101.2 383.7 -50.6 388.8 0L0 0Z" fill="#00657e"></path><path d="M0 -291.6C30.6 -267.3 61.3 -243 95.3 -230C129.3 -217.1 166.8 -215.6 198.1 -198.1C229.5 -180.7 254.8 -147.3 269.4 -111.6C284 -75.9 287.8 -38 291.6 0L0 0Z" fill="#00a28c"></path><path d="M0 -194.4C20.4 -178.2 40.8 -162 63.5 -153.4C86.2 -144.7 111.2 -143.7 132.1 -132.1C153 -120.4 169.9 -98.2 179.6 -74.4C189.3 -50.6 191.9 -25.3 194.4 0L0 0Z" fill="#00df66"></path><path d="M0 -97.2C10.2 -89.1 20.4 -81 31.8 -76.7C43.1 -72.4 55.6 -71.9 66 -66C76.5 -60.2 84.9 -49.1 89.8 -37.2C94.7 -25.3 95.9 -12.7 97.2 0L0 0Z" fill="#5ffa3c"></path></g></svg>